<?xml version="1.0" encoding="utf-8" ?><svg xmlns="http://www.w3.org/2000/svg" xmlns:xlink="http://www.w3.org/1999/xlink" width="543" height="543" viewBox="0 0 543 543"><path fill="#0B3567" transform="matrix(1.086 0 0 1.086 0 3.05176e-05)" d="M194.32 186.792C193.913 185.957 193.412 184.806 193.058 183.955C188.126 172.081 190.854 154.54 195.682 142.9C198.901 135.14 208.283 125.081 214.775 119.529C216.43 118.114 228.31 111.771 230.529 110.916C242.3 106.385 257.906 105.934 270.086 109.138C272.595 109.799 276.495 111.576 278.971 112.509C290.608 116.896 303.827 129.147 308.546 140.688C306.244 141.239 301.155 142.87 299.001 143.765C296.207 139.838 292.816 135.471 289.198 132.34C278.827 123.364 265.447 117.068 251.504 117.97C239.569 118.574 229.744 122.208 220.432 129.619C214.216 134.566 212.883 135.802 209.059 142.831C204.653 150.932 201.73 158.374 201.983 167.875C202.014 169.061 202.317 169.867 203.208 170.618C204.206 170.962 205.518 171.072 206.559 170.902C216.737 169.243 226.975 166.831 237.091 164.9C236.62 160.91 235.22 151.659 235.559 147.454C235.618 146.721 238.026 145.887 238.864 145.551C239.902 151.65 240.521 157.763 241.277 163.908C248.106 163.461 258.695 160.434 265.604 158.519C266.093 153.95 266.313 148.236 267.132 143.879L270.493 145.275C270.646 149.074 269.846 153.245 269.902 157.036C271.876 157.104 275.112 155.617 277.056 155.092C283.324 153.409 289.447 151.357 295.627 149.398C298.526 148.482 301.825 148.139 304.683 147.183C314.587 143.87 324.434 139.787 333.96 135.516C336.254 134.292 341.949 131.306 344.337 131.275C344.027 131.872 336.7 136.466 335.414 137.382C327.752 142.883 319.263 146.568 311.108 150.996C300.143 156.949 289.714 162.518 278.193 167.409C270.805 170.546 263.334 175.018 255.829 178.125C252.465 179.735 248.141 180.697 244.903 182.355C236.931 186.437 228.652 189.653 220.429 193.186C217.303 194.53 213.601 195.202 210.424 196.495C199.733 200.432 175.265 211.401 164.814 204.536C162.784 200.72 162.721 196.902 163.842 192.749C165.038 188.314 171.127 181.186 174.901 178.769C175.398 179.23 175.976 179.646 176.191 180.259C173.191 186.245 173.227 194.727 181.917 195.04C201.593 195.751 220.702 187.747 238.613 180.501C243.635 178.47 249.313 176.861 253.981 174.197L254.07 173.798C252.314 173.541 241.044 177.834 238.077 178.374C223.362 181.05 209.188 184.723 194.32 186.792Z"/><path fill="#7B8595" transform="matrix(1.086 0 0 1.086 0 3.05176e-05)" d="M333.96 135.516C336.254 134.292 341.949 131.306 344.337 131.275C344.027 131.872 336.7 136.466 335.414 137.382L335.553 137.014L335.252 136.433L335.763 136.544C336.561 136.118 337.134 135.59 337.118 134.688C335.522 134.884 335.719 136.214 333.96 135.516Z"/><path fill="#08C84E" transform="matrix(1.086 0 0 1.086 0 3.05176e-05)" d="M357.967 132.698C358.314 132.908 358.193 132.841 358.425 133.244C357.932 134.474 345.972 144.448 344.102 145.659C336.149 150.496 328.656 157.311 320.577 161.88C311.78 166.855 303.137 172.443 294.327 177.27C285.019 182.369 275.156 186.52 266.066 192.084C265.9 202.748 263.889 214.066 263.199 224.752C262.995 227.91 262.738 231.396 262.304 234.507C265.544 234.381 269.366 234.48 272.649 234.485C276.706 231.895 277.962 228.3 279.167 223.925C282.805 210.708 292.934 202.608 299.427 191.104C301.77 186.953 301.813 181.047 303.681 177.393C304.305 176.175 313.145 171.237 314.964 169.955L315.297 169.719C316.336 183.641 308.915 199.824 299.673 210.031C297.348 212.599 295.817 214.662 294.01 217.62C292.568 220.139 290.29 224.225 289.56 227.06C288.499 231.182 288.743 234.103 286.404 238.032C284.458 241.298 279.507 244.609 275.909 245.477C273.874 245.967 268.438 245.809 266.138 245.802L251.423 245.774C244.627 245.78 237.757 246.089 231.051 245.694C221.255 245.118 219.32 235.24 216.674 227.748C215.434 224.237 213.749 221.754 212.071 218.752C210.755 216.396 203.614 209.426 203.407 207.904C203.69 207.38 204.166 207.021 204.733 206.853C213.933 204.125 222.711 200.549 231.522 196.774C233.997 195.715 236.836 195.063 239.342 194.043C247.917 190.552 256.224 186.555 264.513 182.443C267.521 181.012 270.654 179.835 273.7 178.494C281.467 175.073 288.77 170.852 296.292 166.979C302.584 163.739 309.077 160.862 315.245 157.334C318.723 155.345 322.12 153.256 325.61 151.298C328.597 149.639 332.078 148.259 334.963 146.604C339.453 144.029 344.086 141.407 348.484 138.694C351.776 136.663 354.502 134.561 357.967 132.698ZM229.433 230.714C230.513 232.495 231.016 233.242 232.788 234.491C236.423 234.429 240.101 234.264 243.717 234.221C242.867 225.335 242.066 216.439 241.39 207.538C241.297 206.301 241.246 205.228 241.302 203.981L241.065 203.548L240.759 203.513C237.799 204.935 224.977 210.532 222.231 211.268C227.455 217.803 226.22 223.128 229.433 230.714ZM245.364 201.111C246.226 204.508 247.02 211.3 247.495 214.944L249.656 230.808L250.113 234.57C252.497 234.489 254.883 234.477 257.268 234.535C257.415 220.658 260.158 208.043 261.116 194.521L260.846 194.283C255.627 196.353 250.408 199.191 245.364 201.111Z"/><path fill="#0B3567" transform="matrix(1.086 0 0 1.086 0 3.05176e-05)" d="M294.538 298.359C301.768 297.686 309.085 300.345 314.862 304.572C319.061 307.705 321.362 313.019 322.948 317.907C329.75 338.866 320.643 360.742 297.615 363.451C276.582 364.142 268.173 351.586 266.389 332.194C265.519 322.728 268.339 314.014 274.393 306.63C278.57 301.537 288.247 298.791 294.538 298.359ZM297.443 350.417C305.184 348.496 309.384 342.81 310.237 334.867C311.444 323.613 308.378 310.152 294.142 310.587C290.347 311.031 288.506 312.234 286.049 315.254C278.792 324.173 278.41 340.706 287.885 348.239C290.417 350.253 293.471 350.966 296.699 350.529C296.947 350.494 297.195 350.457 297.443 350.417Z"/><path fill="#0B3567" transform="matrix(1.086 0 0 1.086 0 3.05176e-05)" d="M340.585 299.362C342.943 299.27 344.149 299.339 346.505 299.571C349.91 304.066 351.888 308.507 354.927 312.93C360.07 320.416 364.561 326.742 368.756 334.822C369.32 331.482 369.151 324.514 369.16 320.933L369.25 299.509C374.036 299.354 379.382 299.214 384.143 299.59C384.507 306.115 384.243 315.045 384.236 321.701L384.2 362.017L380.562 362.036C377.248 362.123 373.932 362.106 370.619 361.983C368.402 359.582 367.193 356.127 365.402 353.498C360.786 346.722 356.286 339.844 351.77 332.999C350.939 331.738 350.291 329.153 348.98 328.591L348.581 328.827C348.187 331.253 348.417 337.27 348.396 339.875C348.335 347.234 348.495 354.656 348.229 362.013C343.508 362.038 338.786 362.033 334.064 361.998C333.419 351.878 334.259 340.798 333.951 330.579C333.955 321.572 333.85 312.558 333.993 303.553C334.073 298.56 336.441 299.467 340.585 299.362Z"/><path fill="#0B3567" transform="matrix(1.086 0 0 1.086 0 3.05176e-05)" d="M137.034 299.606C139.809 299.45 149.715 299.146 151.984 300.076C154.045 302.044 160.649 323.071 162.306 327.1C162.743 328.162 164.61 335.14 165.189 336.866C166.457 340.626 167.762 344.373 169.104 348.108C170.882 352.987 172.552 356.672 173.332 361.883C169.59 362.38 162.465 362.355 158.641 362.073C157.431 359.737 155.287 352.652 154.55 349.963C153.326 349.983 152.041 349.962 150.812 349.96C145.232 349.888 138.562 349.691 133.071 349.969C132.648 353.586 131.618 357.75 130.211 361.082C129.529 362.696 124.574 362.382 122.991 362.318C120.995 362.238 116.234 362.711 114.694 361.847C114.671 361.76 114.639 361.675 114.625 361.586C113.983 357.385 128.182 320.536 130.241 314.571C131.519 310.865 132.494 303.498 134.731 300.629C135.364 299.816 136.085 299.748 137.034 299.606ZM136.899 337.477L144.563 337.508C146.804 337.495 148.716 337.446 150.951 337.295C150.115 335.602 149.646 334.495 149.171 332.768C148.402 329.971 145.816 318.036 144.105 316.415C141.27 323.531 139.535 331.015 136.899 337.477Z"/><path fill="#0B3567" transform="matrix(1.086 0 0 1.086 0 3.05176e-05)" d="M179.534 299.636C182.646 299.303 188.787 299.465 192.068 299.533C194.344 303.239 195.89 306.711 197.892 310.545C199.523 313.67 201.394 316.777 203.091 319.902C206.485 315.576 210.135 305.012 213.714 299.89C217.597 299.085 226.88 299.553 231.019 299.831C230.13 302.512 228.494 304.17 227.255 306.556C222.828 315.076 217.307 322.745 212.316 330.949C213.691 333.347 215.618 335.736 217.001 338.061C221.326 345.335 227.693 354.594 231.084 362.199C229.362 362.346 227.665 362.34 225.938 362.359C222.167 362.436 218.318 362.341 214.528 362.366C213.381 360.595 212.317 358.767 211.373 356.879C208.765 351.666 205.513 346.849 202.552 341.834C201.318 343.775 200.263 345.936 199.027 347.85C196.061 352.441 194.162 357.588 191.33 362.212C188.781 362.357 176.591 362.675 174.727 361.943L174.585 361.504C178.737 352.895 188.042 338.876 193.55 331.015C190.921 326.963 176.069 302.949 176.018 300.199C176.754 299.61 178.505 299.688 179.534 299.636Z"/><path fill="#0B3567" transform="matrix(1.086 0 0 1.086 0 3.05176e-05)" d="M240.672 299.765C245.737 299.71 250.802 299.694 255.867 299.718C256.131 303.353 255.975 308.681 255.975 312.44L255.975 335.722L255.971 353.546C255.971 355.252 256.194 361.184 255.686 362.372C250.815 362.211 245.513 362.401 240.581 362.365C240.342 358.234 240.501 352.319 240.499 348.085L240.491 321.241L240.49 307.487C240.487 305.654 240.367 301.269 240.672 299.765Z"/><path fill="#08C84E" transform="matrix(1.086 0 0 1.086 0 3.05176e-05)" d="M229.366 251.572C244.556 251.093 260.172 251.698 275.405 251.549C279.337 251.51 279.936 253.067 279.82 256.663C279.728 259.51 280.705 262.292 276.811 262.57C269.229 262.966 258.745 262.535 250.929 262.558L237.567 262.642C236.035 262.656 227.178 263.168 226.738 261.655C226.123 259.535 225.991 254.864 226.822 252.714C227.088 252.025 228.691 251.719 229.366 251.572Z"/><path fill="#08C84E" transform="matrix(1.086 0 0 1.086 0 3.05176e-05)" d="M267.934 268.124C270.073 268.129 273.31 267.824 274.948 269.053C277.162 272.774 275.272 280.524 270.382 281.183C266.781 281.667 262.914 281.504 259.261 281.504L238.893 281.451C234.241 280.938 231.02 279.894 230.473 274.475C230.308 273.538 230.2 269.561 231.137 269.107C234.001 267.72 243.255 268.187 246.193 268.188C253.44 268.211 260.688 268.19 267.934 268.124Z"/><path fill="#B26B1F" transform="matrix(1.086 0 0 1.086 0 3.05176e-05)" d="M250.984 373.836C254.02 373.463 254.712 373.715 257.2 375.316C258.886 380.04 258.946 384.756 253.412 386.405C250.631 386.321 248.462 385.532 247.206 382.837C246.457 381.237 246.379 379.404 246.987 377.745C247.787 375.591 249.001 374.704 250.984 373.836ZM253.571 383.909C256.979 381.802 256.74 376.313 251.761 376.474C248.343 378.721 249.344 384.236 253.571 383.909Z"/><path fill="#B26B1F" transform="matrix(1.086 0 0 1.086 0 3.05176e-05)" d="M275.153 374.037C279.396 374.018 284.813 373.242 285.705 379.143C286.053 381.441 285.374 382.88 283.872 384.573C281.432 386.448 278.07 386.043 275.03 386.025C274.959 383.616 274.824 376.199 275.153 374.037ZM281.677 382.967C284.305 379.291 282.237 376.531 277.969 376.428C277.902 378.467 277.339 382.064 278.531 383.48C279.764 383.915 280.439 383.488 281.677 382.967Z"/><path fill="#0B3567" transform="matrix(1.086 0 0 1.086 0 3.05176e-05)" d="M255.431 135.452C255.875 135.636 256.281 135.884 256.703 136.118C258.073 135.998 259.273 136.349 260.566 136.304C263.116 136.217 265.4 135.894 267.976 136.071C269.404 136.17 269.605 136.385 270.927 137.032C272.078 136.298 272.423 135.899 273.669 136.145C275.906 138.758 270.834 145.581 266.326 138.429L266.122 138.365L265.929 138.618L265.628 138.999C262.462 143.079 259.18 142.429 257.18 137.911C256.692 138.979 256.289 139.579 255.665 140.548C254.326 141.3 252.926 141.845 251.394 141.305C250.295 140.928 249.398 140.119 248.91 139.064C248.607 138.424 248.393 137.397 248.764 136.758C249.714 135.123 251.535 136.315 252.699 136.91L255.431 135.452Z"/><path fill="#B26B1F" transform="matrix(1.086 0 0 1.086 0 3.05176e-05)" d="M211.499 373.946C216.815 374.268 221.926 372.448 220.144 380.169C221.267 382.471 221.819 383.062 220.099 385.252C217.913 386.357 214.07 386.057 211.534 386.033C211.239 384.015 211.232 375.951 211.499 373.946ZM217.78 378.806C218.001 377.658 218.151 377.796 217.833 376.833C216.895 376.084 215.508 376.275 214.237 376.262C214.209 377.501 214.004 377.839 214.543 378.831C215.369 379.341 216.797 378.978 217.78 378.806ZM218.167 383.374C218.31 382.264 218.435 382.588 217.96 381.784C216.917 381.261 215.26 381.465 213.989 381.48C214.115 382.411 214.067 382.869 214.719 383.529C215.814 384.084 216.959 383.661 218.167 383.374Z"/><path fill="#B26B1F" transform="matrix(1.086 0 0 1.086 0 3.05176e-05)" d="M269.631 373.721C270.345 373.845 271.679 373.932 271.804 374.994C272.09 377.415 272.063 379.97 272.045 382.409C272.033 384.04 272.008 385.938 270.102 386.178C268.346 385.591 265.312 380.786 264.031 379.007C263.95 380.987 264.353 382.925 264.11 384.902C263.992 385.867 263.724 385.859 262.997 386.399C261.931 386.003 261.935 386.203 261.406 385.445C261.146 383.484 261.142 381.261 261.143 379.276C261.144 377.541 260.697 374.438 262.877 374.079C265.518 374.935 267.64 379.73 268.864 382.114C268.914 380.076 268.494 375.107 269.631 373.721Z"/><path fill="#B26B1F" transform="matrix(1.086 0 0 1.086 0 3.05176e-05)" d="M136.707 373.558C140.071 373.369 141.893 375.085 142.845 378.12C142.7 378.312 142.555 378.504 142.41 378.696C140.298 378.291 138.226 376.174 135.972 376.731C134.188 377.172 133.999 380.511 134.449 381.923C134.638 382.515 135.774 383.362 136.394 383.454C137.29 383.585 138.585 383.719 139.364 383.11C139.7 382.837 139.578 382.872 139.617 382.324L139.279 382.003C138.434 382.013 137.897 382.127 137.219 381.654C136.833 380.953 136.983 380.623 137.106 379.878C144.37 377.451 144.719 384.226 139.275 386.149C136.427 387.155 132.18 385.439 131.822 381.987C131.342 377.36 131.826 374.627 136.707 373.558Z"/><path fill="#B26B1F" transform="matrix(1.086 0 0 1.086 0 3.05176e-05)" d="M195.328 373.794C198.259 373.563 202.032 374.49 201.622 378.186L201.21 378.497C198.999 378.256 197.307 375.674 195.068 376.909C193.103 379.139 194.088 384.096 197.768 383.804C198.645 383.206 198.296 383.589 198.758 382.533L198.539 382.159C197.499 382.047 197.3 382.073 196.378 381.64C195.934 380.783 196.05 381.112 196.233 379.979C197.995 379.719 200.318 379.034 201.73 380.194C203.439 383.242 199.631 387.398 195.498 386.211C194.017 385.789 192.77 384.784 192.045 383.425C190.759 381.02 191.297 378.605 191.971 376.151C193.22 374.779 193.614 374.557 195.328 373.794Z"/><path fill="#B26B1F" transform="matrix(1.086 0 0 1.086 0 3.05176e-05)" d="M178.413 373.802C181.542 374.341 183.453 378.793 185.085 381.362C185.07 379.501 184.644 375.35 186.032 374.189C186.861 374.068 186.827 374.11 187.646 374.355C188.397 375.416 188.299 384.487 188.173 386.181C187.819 386.195 186.694 386.218 186.411 386.156C184.529 385.741 181.28 380.493 180.058 378.79C180.13 380.572 180.567 385.222 179.312 386.45C178.99 386.261 178.727 386.183 178.586 385.859C177.727 383.884 178.068 375.711 178.413 373.802Z"/><path fill="#B26B1F" transform="matrix(1.086 0 0 1.086 0 3.05176e-05)" d="M350.317 373.557L351.095 373.888C351.98 375.578 351.711 379.661 351.817 381.665C351.893 383.101 352.195 386.248 350.275 386.26C348.706 385.351 345.581 380.421 344.478 378.737C344.549 380.268 345.001 385.098 344.187 386.085L343.615 386.116C342.519 386.143 342.74 386.303 341.971 385.806C341.655 384.556 341.273 375.862 342.298 374.547C342.795 373.908 342.937 374.015 343.591 373.935C345.91 374.841 348.33 379.787 349.662 382.068C349.607 379.423 348.916 375.773 350.317 373.557Z"/><path fill="#B26B1F" transform="matrix(1.086 0 0 1.086 0 3.05176e-05)" d="M329.081 374.047C331.632 373.968 335.872 373.439 337.643 375.532C338.911 377.031 338.357 380.583 336.73 381.64C335.871 381.764 334.109 382.072 333.317 382.031C332.961 382.068 332.768 382.173 332.42 382.297C331.882 383.133 332.14 384.181 332.039 385.394C331.438 386.187 331.809 385.896 330.866 386.276C329.969 386.225 330.034 386.231 329.332 385.661C328.631 384.532 329.03 376.064 329.081 374.047ZM332.012 380.122L334.926 379.556C335.404 378.772 335.562 378.611 335.702 377.683C335.169 376.25 333.691 376.434 332.261 376.198C331.937 377.648 332.006 378.649 332.012 380.122Z"/><path fill="#B26B1F" transform="matrix(1.086 0 0 1.086 0 3.05176e-05)" d="M153.808 373.724C154.207 373.745 155.864 373.844 155.927 374.291C156.3 376.945 157.656 384.942 155.048 386.374C154.312 386.367 154.357 386.394 153.758 385.973C152.968 384.51 153.322 382.944 153.48 381.259C151.546 381.414 150.338 381.399 148.43 381.242C148.567 382.653 148.534 384.314 148.547 385.749C148.307 386.193 148.433 385.991 147.887 386.296C146.865 386.1 147.251 386.341 146.596 385.724C145.957 383.778 145.798 375 147.451 373.68L147.846 373.895C148.815 375.557 148.551 376.816 148.492 378.75C150.345 378.753 151.763 378.722 153.592 378.986C153.228 376.861 153.059 375.732 153.808 373.724Z"/><path fill="#B26B1F" transform="matrix(1.086 0 0 1.086 0 3.05176e-05)" d="M295.246 374.097C297.636 374.156 301.249 373.563 303.154 374.564C303.674 375.31 303.561 374.907 303.502 375.815C302.056 377.015 295.963 375.176 297.768 378.589C299.532 379.608 301.814 378.123 302.865 379.96C302.694 382.16 299.887 381.377 297.934 381.58L297.702 381.606C297.645 385.921 302.376 382.194 303.753 384.659C303.712 385.761 303.92 385.353 303.386 386.066C302.037 386.408 296.824 386.191 295.051 386.155C294.811 384.183 294.405 375.327 295.246 374.097Z"/><path fill="#B26B1F" transform="matrix(1.086 0 0 1.086 0 3.05176e-05)" d="M318.406 373.773C320.434 374.007 325.579 373.337 326.018 375.332C325.067 377.276 322.278 375.452 320.539 376.599C318.908 379.968 323.936 378.709 325.112 379.716L325.16 380.497C324.019 382.544 321.833 380.352 319.921 382.292C321.125 385.507 325.663 382.312 326.322 384.879C325.838 386.768 323.931 386.177 322.366 386.231C320.997 386.277 319.474 386.158 318.099 386.082C317.916 383.991 317.468 375.21 318.406 373.773Z"/><path fill="#B26B1F" transform="matrix(1.086 0 0 1.086 0 3.05176e-05)" d="M224.387 373.944C227.761 374.629 230.26 373.096 232.719 374.94L232.663 375.84C230.765 376.296 228.604 375.801 226.984 376.978C226.551 377.873 226.628 377.417 226.729 378.393C228.116 379.899 230.339 378.357 231.809 379.457C232.077 380.257 232.053 379.839 231.71 380.751C230.546 381.649 228.428 381.42 226.835 381.436C226.655 382.298 226.659 382.235 226.882 383.09C228.721 384.784 231.371 382.895 232.663 384.576C232.628 385.553 232.805 385.157 232.189 385.834C231.137 386.21 225.854 386.085 224.733 385.879C224.045 385 224.274 375.499 224.387 373.944Z"/><path fill="#B26B1F" transform="matrix(1.086 0 0 1.086 0 3.05176e-05)" d="M378.474 378.73C379.255 377.138 380.523 374.165 382.473 373.848C384.171 374.927 381.632 379.054 380.926 380.393C380.885 380.528 380.844 380.663 380.803 380.797C379.738 382.666 380.754 384.726 379.056 386.099C378.01 386.255 378.511 386.302 377.498 385.917C377.182 385.386 377.009 384.046 377.087 383.626C377.585 380.909 372.891 376.178 373.387 374.148L374.139 373.734C376.883 374.203 377.372 376.4 378.474 378.73Z"/><path fill="#B26B1F" transform="matrix(1.086 0 0 1.086 0 3.05176e-05)" d="M305.88 374.095C307.523 374.017 313.927 373.712 315.063 374.396C315.586 375.318 315.601 375.608 314.896 376.292C313.817 376.641 312.617 376.465 311.454 376.402C311.666 378.788 311.544 382.098 311.51 384.562C311.544 385.249 311.574 385.214 311.309 385.84C310.565 386.345 309.566 386.159 308.618 386.115C308.486 383.767 308.474 378.756 308.719 376.507C306.943 376.498 306.617 376.741 304.957 375.907C304.447 375.238 304.545 375.594 304.548 374.837C305.127 374.331 305.146 374.37 305.88 374.095Z"/><path fill="#B26B1F" transform="matrix(1.086 0 0 1.086 0 3.05176e-05)" d="M235.022 373.963C238.732 374.05 238.85 376.078 240.441 379.158C241.073 377.325 241.713 374.341 243.937 373.895L244.344 374.175C244.799 375.928 243.686 377.251 242.756 378.913C241.246 381.994 242.008 384.781 240.709 386.097L239.586 385.955C238.765 384.954 239.301 382.918 238.904 381.894C237.788 379.011 235.415 377.186 235.022 373.963Z"/><path fill="#B26B1F" transform="matrix(1.086 0 0 1.086 0 3.05176e-05)" d="M162.602 376.392C161.346 376.518 159.647 376.884 158.637 376.19C158.382 375.287 158.348 375.713 158.721 374.869C160.32 373.587 168.859 372.776 168.718 375.878C167.218 377.119 166.322 376.123 164.727 376.579C164.953 378.724 165.341 384.985 163.89 386.423L163.508 386.355C161.991 384.624 162.483 378.756 162.602 376.392Z"/><path fill="#B26B1F" transform="matrix(1.086 0 0 1.086 0 3.05176e-05)" d="M361.674 374.026C363.36 374.034 369.821 373.633 370.83 374.329C371.085 375.122 371.043 375.082 370.892 375.914C369.808 376.81 368.536 376.456 367.04 376.342C367.276 378.234 367.215 380.336 367.21 382.26C367.262 383.405 367.467 384.829 367.034 385.82C366.29 386.347 366.709 386.207 365.697 386.127C364.803 385.205 364.999 378.504 364.951 376.559C363.515 376.493 362.202 376.684 361.236 375.527C361.157 374.774 361.299 374.691 361.674 374.026Z"/><path fill="#B26B1F" transform="matrix(1.086 0 0 1.086 0 3.05176e-05)" d="M115.363 373.803C116.464 373.986 116.181 373.788 116.943 374.432C117.746 376.45 117.412 381.441 117.195 383.694C118.14 383.689 119.085 383.694 120.029 383.708C121.194 383.736 122.33 383.695 123.16 384.566C123.342 385.523 123.376 385.051 122.945 386.018C120.718 386.359 117.57 386.235 115.263 386.183C115.03 383.801 114.919 376.008 115.363 373.803Z"/><path fill="#B26B1F" transform="matrix(1.086 0 0 1.086 0 3.05176e-05)" d="M125.945 374.006C126.851 373.973 127.927 373.796 128.555 374.484C128.961 377.143 128.645 382.222 128.692 385.082C128.705 385.86 128.6 385.822 128.201 386.165C127.164 386.172 126.947 386.219 125.979 385.919C125.301 384.944 125.287 375.235 125.945 374.006Z"/><path fill="#0B3567" transform="matrix(1.086 0 0 1.086 0 3.05176e-05)" d="M234.655 137.253C236.245 136.208 236.828 135.576 238.697 135.881C238.869 137.844 238.79 138.204 238.299 140.083C237.632 140.841 235.761 141.575 234.76 141.675C232.328 141.919 229.218 138.189 231.33 136.154C232.791 135.842 233.398 136.451 234.655 137.253Z"/><path fill="#B26B1F" transform="matrix(1.086 0 0 1.086 0 3.05176e-05)" d="M171.839 373.76C172.739 373.888 172.961 373.931 173.828 374.191C174.476 375.313 174.673 384.781 173.943 386.091C173.036 386.144 172.333 386.306 171.57 385.863C171.492 385.671 171.349 385.347 171.35 385.163C171.368 382.744 170.643 375.481 171.839 373.76Z"/><path fill="#B26B1F" transform="matrix(1.086 0 0 1.086 0 3.05176e-05)" d="M186.701 118.063C188.957 118.412 196.775 125.345 197.816 127.937C197.933 128.227 197.435 128.879 197.272 129.153C195.908 128.824 187.186 121.186 186.09 119.672C186.011 118.723 186.011 119.048 186.701 118.063Z"/><path fill="#0B3567" transform="matrix(1.086 0 0 1.086 0 3.05176e-05)" d="M243.436 136.689C245.066 136.053 246.397 135.13 247.659 136.777C248.358 139.755 245.322 141.171 242.964 141.655C241.843 141.002 241.231 140.683 240.367 139.669C240.085 138.317 239.924 137.325 240.115 135.948C241.541 135.73 242.099 136.07 243.436 136.689Z"/><path fill="#B26B1F" transform="matrix(1.086 0 0 1.086 0 3.05176e-05)" d="M251.096 85.8319C251.575 85.9635 252.611 86.1897 252.632 86.7955C252.724 89.4515 253.383 99.8843 252.212 101.747C251.628 101.571 251.425 101.457 250.873 101.184C250.205 99.857 250.025 87.0709 251.096 85.8319Z"/><path fill="#B26B1F" transform="matrix(1.086 0 0 1.086 0 3.05176e-05)" d="M286.916 93.4127L287.612 93.7994C288.724 96.0071 283.743 106.349 282.042 107.896C281.614 107.613 281.103 107.193 281.193 106.635C281.695 103.524 284.898 95.3427 286.916 93.4127Z"/><path fill="#B26B1F" transform="matrix(1.086 0 0 1.086 0 3.05176e-05)" d="M214.086 95.0687C215.57 95.2102 216.241 96.2007 216.963 97.4539C218.397 99.9439 222.589 105.624 222.055 108.53L221.13 108.453C219.245 107.211 213.634 97.7974 214.086 95.0687Z"/><path fill="#B26B1F" transform="matrix(1.086 0 0 1.086 0 3.05176e-05)" d="M355.792 374.053C356.692 373.999 357.543 373.844 358.339 374.223C358.51 375.8 358.671 385.231 358.15 386.225C357.207 386.256 356.84 386.341 355.963 385.97C355.276 384.772 355.574 375.785 355.792 374.053Z"/><path fill="#B26B1F" transform="matrix(1.086 0 0 1.086 0 3.05176e-05)" d="M171.257 153.245C173.272 153.175 183.776 154.969 185.353 155.918C185.778 156.704 185.713 156.295 185.523 157.192C183.157 157.348 173.131 156.516 171.31 154.973C170.932 153.997 171.01 154.385 171.257 153.245Z"/><path fill="#B26B1F" transform="matrix(1.086 0 0 1.086 0 3.05176e-05)" d="M313.731 114.226C314.156 114.212 314.201 114.282 314.633 114.413L314.783 114.942C314.132 116.613 306.758 123.011 304.93 124.666C304.321 124.813 304.108 124.777 303.721 124.396C303.617 121.407 311.283 115.398 313.731 114.226Z"/><path fill="#030003" fill-opacity="0.21960784" transform="matrix(1.086 0 0 1.086 0 3.05176e-05)" d="M232.13 265.342C233.752 265.027 246.927 265.219 249.38 265.31C256 265.557 263.905 265.079 270.34 265.408L270.498 265.698C267.769 265.967 263.818 265.805 260.981 265.798L243.568 265.814C240.278 265.84 236.181 266.005 232.832 266.018C232.43 266.02 232.42 265.786 232.13 265.342Z"/><path fill="#B26B1F" transform="matrix(1.086 0 0 1.086 0 3.05176e-05)" d="M333.317 382.031C334.109 382.072 335.871 381.764 336.73 381.64C337.23 383.587 338.855 384.437 339.028 385.654C336.766 387.962 334.614 383.223 333.317 382.031Z"/><path fill="#030003" fill-opacity="0.96862745" transform="matrix(1.086 0 0 1.086 0 3.05176e-05)" d="M207.842 187.232C211.552 186.279 215.005 186.109 218.447 184.988C215.142 186.963 212.991 187.404 209.264 188.425C208.831 187.549 208.897 187.799 207.842 187.232Z"/><path fill="#030003" fill-opacity="0.44313726" transform="matrix(1.086 0 0 1.086 0 3.05176e-05)" d="M206.259 189.376C204.782 189.548 202.861 190.595 201.542 190.135L201.664 189.425C203.584 188.83 203.59 188.121 204.985 188.035C205.298 188.805 205.576 188.904 206.259 189.376Z"/><path fill="#030003" fill-opacity="0.81960785" transform="matrix(1.086 0 0 1.086 0 3.05176e-05)" d="M204.985 188.035C206.068 187.789 206.787 187.581 207.842 187.232C208.897 187.799 208.831 187.549 209.264 188.425C208.41 188.679 207.04 189.041 206.259 189.376C205.576 188.904 205.298 188.805 204.985 188.035Z"/><path fill="#FFF4F6" fill-opacity="0.29411766" transform="matrix(1.086 0 0 1.086 0 3.05176e-05)" d="M238.697 135.881C239.406 135.969 239.423 136.019 240.115 135.948C239.924 137.325 240.085 138.317 240.367 139.669L239.553 139.082C238.784 139.286 238.937 139.351 238.299 140.083C238.79 138.204 238.869 137.844 238.697 135.881Z"/><path fill="#3B5470" transform="matrix(1.086 0 0 1.086 0 3.05176e-05)" d="M178.551 176.215C177.746 177.552 176.959 178.9 176.191 180.259C175.976 179.646 175.398 179.23 174.901 178.769C176.059 177.913 177.314 176.921 178.551 176.215Z"/><path fill="#030003" fill-opacity="0.039215688" transform="matrix(1.086 0 0 1.086 0 3.05176e-05)" d="M276.876 188.958L277.328 189.34C276.855 190.376 276.635 190.04 275.63 190.92L275.348 191.17L274.848 190.778L274.846 190.312C275.538 189.8 276.147 189.417 276.876 188.958Z"/><path fill="#030003" fill-opacity="0.16078432" transform="matrix(1.086 0 0 1.086 0 3.05176e-05)" d="M272.599 248.394C273.889 248.198 274.763 247.928 275.798 248.653C274.906 248.788 273.249 249.099 272.599 248.394Z"/><path fill="#030003" fill-opacity="0.23529412" transform="matrix(1.086 0 0 1.086 0 3.05176e-05)" d="M228.201 248.375C229.652 248.115 230.489 248.265 231.929 248.627C230.431 248.81 229.415 249.135 228.201 248.375Z"/></svg>